<svg viewBox="0 0 200 160" class="animalSprite fairCartoon " role="img" aria-label="Horse" data-animal-id="equus_caballus" data-art-version="fair-cartoon-v2" data-normalized-size="142" data-anatomy="horse"><ellipse class="cartoonGround" cx="100" cy="149" rx="65" ry="5" fill="#60482c" opacity=".12"></ellipse><g stroke="#513b32" stroke-width="2.3" stroke-linejoin="round" stroke-linecap="round"><defs><clipPath id="coat_R_0_"><path d="M39 92 Q37 72 68 72 L101 76 Q117 66 126 82 L125 107 Q96 119 61 110 Q39 110 39 92 Z"></path></clipPath></defs><g class="cartoonWag" style="transform-origin:47px 103px"><path fill="none" stroke="#a66c44" stroke-width="3.5" d="M43 94 Q23 98 26 120"></path><path fill="#513b32" d="M26 116 q-9 11 1 18 q6-12-1-18"></path></g><g class="cartoonFeet"><g class="cartoonStep" style="transform-origin:53px 96px"><path fill="#a66c44" d="M47 96 Q45 130 47 140 q-7 4 -3 7 h17 q4-3 0-7 L60 96 Z"></path><path fill="#57483d" d="M46 142 h16 v5 h-16 Z"></path></g><g class="cartoonStepBack" style="transform-origin:68px 96px"><path fill="#a66c44" d="M62 96 Q60 130 62 140 q-7 4 -3 7 h17 q4-3 0-7 L75 96 Z"></path><path fill="#57483d" d="M61 142 h16 v5 h-16 Z"></path></g><g class="cartoonStep" style="transform-origin:104px 96px"><path fill="#a66c44" d="M98 96 Q96 130 98 140 q-7 4 -3 7 h17 q4-3 0-7 L111 96 Z"></path><path fill="#57483d" d="M97 142 h16 v5 h-16 Z"></path></g><g class="cartoonStepBack" style="transform-origin:117px 96px"><path fill="#a66c44" d="M111 96 Q109 130 111 140 q-7 4 -3 7 h17 q4-3 0-7 L124 96 Z"></path><path fill="#57483d" d="M110 142 h16 v5 h-16 Z"></path></g></g><path fill="#a66c44" d="M39 92 Q37 72 68 72 L101 76 Q117 66 126 82 L125 107 Q96 119 61 110 Q39 110 39 92 Z"></path><path fill="#a66c44" d="M103 83 L119 50 Q130 41 140 55 L125 102 Z"></path><path fill="#6c4534" d="M107 82 Q106 56 123 41 L132 42 Q119 56 121 73 L117 91 Z"></path><g class="cartoonHead" style="transform-origin:127px 69px"><path fill="#a66c44" d="M127 45 q-16-27 -5-29 q12 5 14 31 Z"></path><path fill="#a66c44" d="M142 44 q2-26 12-24 q9 10-3 34 Z"></path><path stroke="#dbb9a2" stroke-width="3" d="M130 35 l-5-13"></path><ellipse fill="#a66c44" cx="141" cy="55" rx="20" ry="18"></ellipse><path fill="#e1d4bc" d="M145 61 Q154 56 170 63 Q180 74 159 79 Q142 77 145 61 Z"></path><g class="cartoonBlink" style="transform-origin:144px 52px"><ellipse cx="144" cy="52" rx="6.4" ry="8" fill="#fffaf0" stroke-width="1.6"></ellipse><ellipse cx="145.44" cy="52.5" rx="3.68" ry="5.28" fill="#513b32" stroke="none"></ellipse><circle cx="146.88" cy="49.6" r="1.68" fill="white" stroke="none"></circle></g><ellipse fill="#513b32" stroke="none" cx="170" cy="65" rx="4" ry="3"></ellipse><path fill="none" stroke-width="1.5" d="M138 39 q7-4 12 0 M159 74 q6 5 12 0"></path><ellipse fill="#e6a594" opacity=".5" stroke="none" cx="139" cy="65" rx="5" ry="3"></ellipse></g></g></svg>