<svg xmlns="http://www.w3.org/2000/svg" viewBox="0 0 200 160" class="animalSprite fairCartoon " role="img" aria-label="European badger" data-animal-id="meles_meles" data-art-version="fair-cartoon-v2" data-normalized-size="142" data-anatomy="badger"><ellipse class="cartoonGround" cx="100" cy="149" rx="65" ry="5" fill="#60482c" opacity=".12"></ellipse><g stroke="#513b32" stroke-width="2.3" stroke-linejoin="round" stroke-linecap="round"><defs><clipPath id="coat_R_0_"><path d="M43 99 Q43 77 66 78 L104 82 Q124 77 136 92 L130 110 Q99 120 63 118 Q42 116 43 99 Z"></path></clipPath></defs><g class="cartoonFeet"><g class="cartoonStep" style="transform-origin:57px 101px"><path fill="#777e77" d="M51 101 Q49 127 51 137 q-7 4 -3 7 h17 q4-3 0-7 L64 101 Z"></path><path stroke-width="1" fill="none" d="M54 142 v2 m5-2 v2"></path></g><g class="cartoonStepBack" style="transform-origin:72px 101px"><path fill="#777e77" d="M66 101 Q64 127 66 137 q-7 4 -3 7 h17 q4-3 0-7 L79 101 Z"></path><path stroke-width="1" fill="none" d="M69 142 v2 m5-2 v2"></path></g><g class="cartoonStep" style="transform-origin:104px 101px"><path fill="#777e77" d="M98 101 Q96 127 98 137 q-7 4 -3 7 h17 q4-3 0-7 L111 101 Z"></path><path stroke-width="1" fill="none" d="M101 142 v2 m5-2 v2"></path></g><g class="cartoonStepBack" style="transform-origin:119px 101px"><path fill="#777e77" d="M113 101 Q111 127 113 137 q-7 4 -3 7 h17 q4-3 0-7 L126 101 Z"></path><path stroke-width="1" fill="none" d="M116 142 v2 m5-2 v2"></path></g></g><path fill="#777e77" d="M43 99 Q43 77 66 78 L104 82 Q124 77 136 92 L130 110 Q99 120 63 118 Q42 116 43 99 Z"></path><g class="cartoonHead" style="transform-origin:119px 89px"><ellipse fill="#777e77" cx="116" cy="55" rx="10" ry="10"></ellipse><ellipse fill="#d5b39b" stroke="none" cx="116" cy="55" rx="5" ry="5.5"></ellipse><ellipse fill="#777e77" cx="143" cy="54" rx="8.5" ry="10"></ellipse><path fill="#777e77" d="M110 83 Q108 54 134 54 Q150 57 155 73 L176 86 Q180 94 157 97 Q123 104 110 83 Z"></path><path fill="#eee9d7" stroke="none" d="M114 63 Q134 48 157 71 L169 86 156 95 Q134 88 114 63 Z"></path><path fill="#42483f" stroke="none" d="M121 60 Q137 66 163 85 L155 89 Q139 80 121 69 Z"></path><g class="cartoonBlink" style="transform-origin:136px 72px"><ellipse cx="136" cy="72" rx="5.6000000000000005" ry="7" fill="#fffaf0" stroke-width="1.6"></ellipse><ellipse cx="137.26" cy="72.5" rx="3.22" ry="4.62" fill="#513b32" stroke="none"></ellipse><circle cx="138.52" cy="69.9" r="1.47" fill="white" stroke="none"></circle></g><ellipse fill="#513b32" stroke="none" cx="175" cy="87" rx="3" ry="3"></ellipse><path fill="none" stroke-width="1.5" d="M130 59 q7-4 12 0 M151 94 q6 5 12 0"></path><ellipse fill="#e6a594" opacity=".5" stroke="none" cx="131" cy="85" rx="5" ry="3"></ellipse></g></g></svg>
