<svg viewBox="0 0 200 160" class="animalSprite fairCartoon " role="img" aria-label="European rabbit" data-animal-id="oryctolagus_cuniculus" data-art-version="fair-cartoon-v2" data-normalized-size="142" data-anatomy="rabbit"><ellipse class="cartoonGround" cx="100" cy="149" rx="65" ry="5" fill="#60482c" opacity=".12"></ellipse><g stroke="#513b32" stroke-width="2.3" stroke-linejoin="round" stroke-linecap="round"><defs><clipPath id="coat_R_0_"><path d="M42 109 Q32 81 67 80 Q90 72 120 99 L132 118 Q102 140 58 128 Q41 124 42 109 Z"></path></clipPath></defs><g class="cartoonFeet"><g class="cartoonStep" style="transform-origin:51px 117px"><path fill="#bd9c7e" d="M45 117 Q43 127 45 137 q-7 4 -3 7 h17 q4-3 0-7 L58 117 Z"></path><path stroke-width="1" fill="none" d="M48 142 v2 m5-2 v2"></path></g><g class="cartoonStepBack" style="transform-origin:67px 117px"><path fill="#bd9c7e" d="M61 117 Q59 127 61 137 q-7 4 -3 7 h17 q4-3 0-7 L74 117 Z"></path><path stroke-width="1" fill="none" d="M64 142 v2 m5-2 v2"></path></g><g class="cartoonStep" style="transform-origin:112px 117px"><path fill="#bd9c7e" d="M106 117 Q104 127 106 137 q-7 4 -3 7 h17 q4-3 0-7 L119 117 Z"></path><path stroke-width="1" fill="none" d="M109 142 v2 m5-2 v2"></path></g><g class="cartoonStepBack" style="transform-origin:123px 117px"><path fill="#bd9c7e" d="M117 117 Q115 127 117 137 q-7 4 -3 7 h17 q4-3 0-7 L130 117 Z"></path><path stroke-width="1" fill="none" d="M120 142 v2 m5-2 v2"></path></g></g><path fill="#bd9c7e" d="M42 109 Q32 81 67 80 Q90 72 120 99 L132 118 Q102 140 58 128 Q41 124 42 109 Z"></path><ellipse fill="#fff3db" cx="43" cy="109" rx="12" ry="11"></ellipse><g class="cartoonHead" style="transform-origin:118px 106px"><path fill="#bd9c7e" d="M118 82 q-16-40 -5-41 q12 5 14 31 Z"></path><path fill="#bd9c7e" d="M133 81 q2-41 12-37 q9 10-3 34 Z"></path><path stroke="#dbb9a2" stroke-width="3" d="M121 72 l-5-24"></path><ellipse fill="#bd9c7e" cx="132" cy="92" rx="23" ry="23"></ellipse><path fill="#bd9c7e" d="M136 98 Q145 93 161 100 Q171 111 150 116 Q133 114 136 98 Z"></path><g class="cartoonBlink" style="transform-origin:135px 89px"><ellipse cx="135" cy="89" rx="6.4" ry="8" fill="#fffaf0" stroke-width="1.6"></ellipse><ellipse cx="136.44" cy="89.5" rx="3.68" ry="5.28" fill="#513b32" stroke="none"></ellipse><circle cx="137.88" cy="86.6" r="1.68" fill="white" stroke="none"></circle></g><ellipse fill="#513b32" stroke="none" cx="161" cy="102" rx="4" ry="3"></ellipse><path fill="none" stroke-width="1.5" d="M129 76 q7-4 12 0 M150 111 q6 5 12 0"></path><ellipse fill="#e6a594" opacity=".5" stroke="none" cx="130" cy="102" rx="5" ry="3"></ellipse><path fill="none" stroke-width="1.1" d="M153 104 l-18-3 m19 8 -19 2"></path></g></g></svg>